<svg width="239" height="40" viewBox="0 0 239 40" fill="none" xmlns="http://www.w3.org/2000/svg">
<path d="M8.99274 7.15899L22.85 3.43909L27.4448 6.13724L9.97382 10.8272L8.99274 7.15899Z" fill="#1A9FEA"/>
<path d="M8.96431 7.1666L4.28299 24.6699L7.94443 25.6528L12.6257 8.1495L8.96431 7.1666Z" fill="#1A9FEA"/>
<path d="M17.103 37.483L30.9602 33.763L33.5928 29.1248L16.1219 33.8148L17.103 37.483Z" fill="#1A9FEA"/>
<path d="M17.0745 37.4907L4.28495 24.6774L6.96531 21.992L19.7549 34.8054L17.0745 37.4907Z" fill="#1A9FEA"/>
<path d="M28.0365 16.3316L13.8663 20.1355L14.8474 23.8037L29.0176 19.9998L28.0365 16.3316Z" fill="#1D1D1D"/>
<mask id="mask0_33_244" style="mask-type:alpha" maskUnits="userSpaceOnUse" x="28" y="13" width="12" height="7">
<path d="M29.0176 19.9998L37.8922 17.6174L39.2255 13.3279L28.0364 16.3316L29.0176 19.9998Z" fill="#1D1D1D"/>
</mask>
<g mask="url(#mask0_33_244)">
<path d="M28.0487 16.3771L36.9407 13.9901L40.2407 17.0358L29.0297 20.0454L28.0487 16.3771Z" fill="#1D1D1D"/>
</g>
<path d="M20.4735 30.7061L34.7036 26.8861L37.4334 22.2217L19.4924 27.0379L20.4735 30.7061Z" fill="#1D1D1D"/>
<path d="M19.6269 30.9559L28.5016 28.5736L29.8349 24.2841L18.6459 27.2877L19.6269 30.9559Z" fill="#1D1D1D"/>
<path d="M15.3419 15.1526L24.2166 12.7702L25.5498 8.48071L14.3608 11.4843L15.3419 15.1526Z" fill="#1D1D1D"/>
<path d="M19.6388 30.9301L11.4478 22.724L14.1282 20.0387L22.3191 28.2448L19.6388 30.9301Z" fill="#1D1D1D"/>
<path d="M14.849 11.3532L29.0791 7.5332L33.7711 10.2052L15.8301 15.0214L14.849 11.3532Z" fill="#1D1D1D"/>
<path d="M14.4446 11.5095L11.4466 22.7192L15.108 23.7021L18.1061 12.4924L14.4446 11.5095Z" fill="#1D1D1D"/>
<path d="M63.5117 21.7832H66.4316C66.373 22.7402 66.1094 23.5898 65.6406 24.332C65.1784 25.0742 64.5306 25.6536 63.6973 26.0703C62.8704 26.487 61.8743 26.6953 60.709 26.6953C59.7975 26.6953 58.9805 26.5391 58.2578 26.2266C57.5352 25.9076 56.9167 25.4518 56.4023 24.8594C55.8945 24.2669 55.5072 23.5508 55.2402 22.7109C54.9733 21.8711 54.8398 20.9303 54.8398 19.8887V18.9023C54.8398 17.8607 54.9766 16.9199 55.25 16.0801C55.5299 15.2337 55.9271 14.5143 56.4414 13.9219C56.9622 13.3294 57.584 12.8737 58.3066 12.5547C59.0293 12.2357 59.8366 12.0762 60.7285 12.0762C61.9134 12.0762 62.9128 12.291 63.7266 12.7207C64.5469 13.1504 65.1816 13.7428 65.6309 14.498C66.0866 15.2533 66.36 16.1126 66.4512 17.0762H63.5215C63.4889 16.5033 63.375 16.0182 63.1797 15.6211C62.9844 15.2174 62.6882 14.9147 62.291 14.7129C61.9004 14.5046 61.3796 14.4004 60.7285 14.4004C60.2402 14.4004 59.8138 14.4915 59.4492 14.6738C59.0846 14.8561 58.7786 15.1328 58.5312 15.5039C58.2839 15.875 58.0983 16.3438 57.9746 16.9102C57.8574 17.4701 57.7988 18.1276 57.7988 18.8828V19.8887C57.7988 20.6243 57.8542 21.2721 57.9648 21.832C58.0755 22.3854 58.2448 22.8542 58.4727 23.2383C58.707 23.6159 59.0065 23.9023 59.3711 24.0977C59.7422 24.2865 60.1882 24.3809 60.709 24.3809C61.321 24.3809 61.8255 24.2832 62.2227 24.0879C62.6198 23.8926 62.9225 23.6029 63.1309 23.2188C63.3457 22.8346 63.4727 22.3561 63.5117 21.7832ZM73.8828 24.1172V19.4102C73.8828 19.0716 73.8275 18.7819 73.7168 18.541C73.6061 18.2936 73.4336 18.1016 73.1992 17.9648C72.9714 17.8281 72.6751 17.7598 72.3105 17.7598C71.998 17.7598 71.7279 17.8151 71.5 17.9258C71.2721 18.0299 71.0964 18.1829 70.9727 18.3848C70.849 18.5801 70.7871 18.8112 70.7871 19.0781H67.9746C67.9746 18.6289 68.0788 18.2025 68.2871 17.7988C68.4954 17.3952 68.7982 17.0404 69.1953 16.7344C69.5924 16.4219 70.0645 16.1777 70.6113 16.002C71.1647 15.8262 71.7832 15.7383 72.4668 15.7383C73.2871 15.7383 74.0163 15.875 74.6543 16.1484C75.2923 16.4219 75.7936 16.832 76.1582 17.3789C76.5293 17.9258 76.7148 18.6094 76.7148 19.4297V23.9512C76.7148 24.5306 76.7507 25.0059 76.8223 25.377C76.8939 25.7415 76.998 26.0605 77.1348 26.334V26.5H74.293C74.1562 26.2135 74.0521 25.8555 73.9805 25.4258C73.9154 24.9896 73.8828 24.5534 73.8828 24.1172ZM74.2539 20.0645L74.2734 21.6562H72.7012C72.3301 21.6562 72.0078 21.6986 71.7344 21.7832C71.4609 21.8678 71.2363 21.9883 71.0605 22.1445C70.8848 22.2943 70.7546 22.4701 70.6699 22.6719C70.5918 22.8737 70.5527 23.0951 70.5527 23.3359C70.5527 23.5768 70.6081 23.7949 70.7188 23.9902C70.8294 24.179 70.9889 24.3288 71.1973 24.4395C71.4056 24.5436 71.6497 24.5957 71.9297 24.5957C72.3529 24.5957 72.7207 24.5111 73.0332 24.3418C73.3457 24.1725 73.5866 23.9642 73.7559 23.7168C73.9316 23.4694 74.0228 23.235 74.0293 23.0137L74.7715 24.2051C74.6673 24.472 74.5241 24.7487 74.3418 25.0352C74.166 25.3216 73.9414 25.5918 73.668 25.8457C73.3945 26.0931 73.0658 26.2982 72.6816 26.4609C72.2975 26.6172 71.8418 26.6953 71.3145 26.6953C70.6439 26.6953 70.0352 26.5618 69.4883 26.2949C68.9479 26.0215 68.5182 25.6471 68.1992 25.1719C67.8867 24.6901 67.7305 24.1432 67.7305 23.5312C67.7305 22.9779 67.8346 22.4863 68.043 22.0566C68.2513 21.627 68.5573 21.2656 68.9609 20.9727C69.3711 20.6732 69.8822 20.4486 70.4941 20.2988C71.1061 20.1426 71.8158 20.0645 72.623 20.0645H74.2539ZM81.6953 18.1211V26.5H78.873V15.9336H81.5195L81.6953 18.1211ZM81.3047 20.8457H80.5234C80.5234 20.11 80.6113 19.4329 80.7871 18.8145C80.9694 18.1895 81.2331 17.6491 81.5781 17.1934C81.9297 16.7311 82.3626 16.373 82.877 16.1191C83.3913 15.8652 83.987 15.7383 84.6641 15.7383C85.1328 15.7383 85.5625 15.8099 85.9531 15.9531C86.3438 16.0898 86.679 16.3079 86.959 16.6074C87.2454 16.9004 87.4668 17.2845 87.623 17.7598C87.7793 18.2285 87.8574 18.7917 87.8574 19.4492V26.5H85.0449V19.7617C85.0449 19.2799 84.9798 18.9089 84.8496 18.6484C84.7194 18.388 84.5339 18.2057 84.293 18.1016C84.0586 17.9974 83.7754 17.9453 83.4434 17.9453C83.0788 17.9453 82.7598 18.0202 82.4863 18.1699C82.2194 18.3197 81.998 18.528 81.8223 18.7949C81.6465 19.0553 81.5163 19.3613 81.4316 19.7129C81.347 20.0645 81.3047 20.4421 81.3047 20.8457ZM87.5938 20.5234L86.5879 20.6504C86.5879 19.9603 86.6725 19.319 86.8418 18.7266C87.0176 18.1341 87.2747 17.6133 87.6133 17.1641C87.9583 16.7148 88.3848 16.3665 88.8926 16.1191C89.4004 15.8652 89.9863 15.7383 90.6504 15.7383C91.1582 15.7383 91.6204 15.8132 92.0371 15.9629C92.4538 16.1061 92.8086 16.3372 93.1016 16.6562C93.401 16.9688 93.6289 17.3789 93.7852 17.8867C93.9479 18.3945 94.0293 19.0163 94.0293 19.752V26.5H91.207V19.752C91.207 19.2637 91.1419 18.8926 91.0117 18.6387C90.888 18.3783 90.7057 18.1992 90.4648 18.1016C90.2305 17.9974 89.9505 17.9453 89.625 17.9453C89.2865 17.9453 88.9902 18.0137 88.7363 18.1504C88.4824 18.2806 88.2708 18.4629 88.1016 18.6973C87.9323 18.9316 87.8053 19.2051 87.7207 19.5176C87.6361 19.8236 87.5938 20.1589 87.5938 20.5234ZM101.07 26.6953C100.25 26.6953 99.5143 26.5651 98.8633 26.3047C98.2122 26.0378 97.6589 25.6699 97.2031 25.2012C96.7539 24.7324 96.4089 24.1888 96.168 23.5703C95.9271 22.9453 95.8066 22.2812 95.8066 21.5781V21.1875C95.8066 20.3867 95.9206 19.6543 96.1484 18.9902C96.3763 18.3262 96.7018 17.75 97.125 17.2617C97.5547 16.7734 98.0755 16.3991 98.6875 16.1387C99.2995 15.8717 99.9896 15.7383 100.758 15.7383C101.507 15.7383 102.171 15.862 102.75 16.1094C103.329 16.3568 103.814 16.7083 104.205 17.1641C104.602 17.6198 104.902 18.1667 105.104 18.8047C105.305 19.4362 105.406 20.1393 105.406 20.9141V22.0859H97.0078V20.2109H102.643V19.9961C102.643 19.6055 102.571 19.2572 102.428 18.9512C102.291 18.6387 102.083 18.3913 101.803 18.209C101.523 18.0267 101.165 17.9355 100.729 17.9355C100.357 17.9355 100.038 18.0169 99.7715 18.1797C99.5046 18.3424 99.2865 18.5703 99.1172 18.8633C98.9544 19.1562 98.8307 19.5013 98.7461 19.8984C98.668 20.2891 98.6289 20.7188 98.6289 21.1875V21.5781C98.6289 22.0013 98.6875 22.3919 98.8047 22.75C98.9284 23.1081 99.1009 23.4173 99.3223 23.6777C99.5501 23.9382 99.8236 24.14 100.143 24.2832C100.468 24.4264 100.836 24.498 101.246 24.498C101.754 24.498 102.226 24.4004 102.662 24.2051C103.105 24.0033 103.486 23.7005 103.805 23.2969L105.172 24.7812C104.951 25.1003 104.648 25.4062 104.264 25.6992C103.886 25.9922 103.43 26.2331 102.896 26.4219C102.363 26.6042 101.754 26.6953 101.07 26.6953ZM109.82 18.2383V26.5H107.008V15.9336H109.654L109.82 18.2383ZM113.004 15.8652L112.955 18.4727C112.818 18.4531 112.652 18.4368 112.457 18.4238C112.268 18.4043 112.096 18.3945 111.939 18.3945C111.542 18.3945 111.197 18.4466 110.904 18.5508C110.618 18.6484 110.377 18.7949 110.182 18.9902C109.993 19.1855 109.85 19.4232 109.752 19.7031C109.661 19.9831 109.609 20.3021 109.596 20.6602L109.029 20.4844C109.029 19.8008 109.098 19.1725 109.234 18.5996C109.371 18.0202 109.57 17.5156 109.83 17.0859C110.097 16.6562 110.423 16.3242 110.807 16.0898C111.191 15.8555 111.63 15.7383 112.125 15.7383C112.281 15.7383 112.441 15.7513 112.604 15.7773C112.766 15.7969 112.9 15.8262 113.004 15.8652ZM124.049 24.2148V26.5H116.48V24.2148H124.049ZM117.438 12.2812V26.5H114.508V12.2812H117.438ZM123.062 18.0723V20.2988H116.48V18.0723H123.062ZM124.039 12.2812V14.5762H116.48V12.2812H124.039ZM127.848 15.9336L129.596 19.1465L131.393 15.9336H134.391L131.402 21.0996L134.527 26.5H131.52L129.615 23.1016L127.711 26.5H124.703L127.828 21.0996L124.84 15.9336H127.848ZM138.57 17.9648V30.5625H135.758V15.9336H138.365L138.57 17.9648ZM145.26 21.0996V21.3047C145.26 22.0729 145.169 22.7858 144.986 23.4434C144.811 24.1009 144.55 24.6738 144.205 25.1621C143.86 25.6439 143.43 26.0215 142.916 26.2949C142.408 26.5618 141.822 26.6953 141.158 26.6953C140.514 26.6953 139.954 26.5651 139.479 26.3047C139.003 26.0443 138.603 25.6797 138.277 25.2109C137.958 24.7357 137.701 24.1855 137.506 23.5605C137.311 22.9355 137.161 22.265 137.057 21.5488V21.0117C137.161 20.2435 137.311 19.5404 137.506 18.9023C137.701 18.2578 137.958 17.7012 138.277 17.2324C138.603 16.7572 139 16.3893 139.469 16.1289C139.944 15.8685 140.501 15.7383 141.139 15.7383C141.809 15.7383 142.398 15.8652 142.906 16.1191C143.421 16.373 143.85 16.7376 144.195 17.2129C144.547 17.6882 144.811 18.2546 144.986 18.9121C145.169 19.5697 145.26 20.2988 145.26 21.0996ZM142.438 21.3047V21.0996C142.438 20.6504 142.398 20.237 142.32 19.8594C142.249 19.4753 142.132 19.14 141.969 18.8535C141.812 18.5671 141.604 18.3457 141.344 18.1895C141.09 18.0267 140.781 17.9453 140.416 17.9453C140.032 17.9453 139.703 18.0072 139.43 18.1309C139.163 18.2546 138.945 18.4336 138.775 18.668C138.606 18.9023 138.479 19.1823 138.395 19.5078C138.31 19.8333 138.258 20.2012 138.238 20.6113V21.9688C138.271 22.4505 138.362 22.8835 138.512 23.2676C138.661 23.6452 138.893 23.9447 139.205 24.166C139.518 24.3874 139.928 24.498 140.436 24.498C140.807 24.498 141.119 24.4167 141.373 24.2539C141.627 24.0846 141.832 23.8535 141.988 23.5605C142.151 23.2676 142.265 22.929 142.33 22.5449C142.402 22.1608 142.438 21.7474 142.438 21.3047ZM149.82 18.2383V26.5H147.008V15.9336H149.654L149.82 18.2383ZM153.004 15.8652L152.955 18.4727C152.818 18.4531 152.652 18.4368 152.457 18.4238C152.268 18.4043 152.096 18.3945 151.939 18.3945C151.542 18.3945 151.197 18.4466 150.904 18.5508C150.618 18.6484 150.377 18.7949 150.182 18.9902C149.993 19.1855 149.85 19.4232 149.752 19.7031C149.661 19.9831 149.609 20.3021 149.596 20.6602L149.029 20.4844C149.029 19.8008 149.098 19.1725 149.234 18.5996C149.371 18.0202 149.57 17.5156 149.83 17.0859C150.097 16.6562 150.423 16.3242 150.807 16.0898C151.191 15.8555 151.63 15.7383 152.125 15.7383C152.281 15.7383 152.441 15.7513 152.604 15.7773C152.766 15.7969 152.9 15.8262 153.004 15.8652ZM159 26.6953C158.18 26.6953 157.444 26.5651 156.793 26.3047C156.142 26.0378 155.589 25.6699 155.133 25.2012C154.684 24.7324 154.339 24.1888 154.098 23.5703C153.857 22.9453 153.736 22.2812 153.736 21.5781V21.1875C153.736 20.3867 153.85 19.6543 154.078 18.9902C154.306 18.3262 154.632 17.75 155.055 17.2617C155.484 16.7734 156.005 16.3991 156.617 16.1387C157.229 15.8717 157.919 15.7383 158.688 15.7383C159.436 15.7383 160.1 15.862 160.68 16.1094C161.259 16.3568 161.744 16.7083 162.135 17.1641C162.532 17.6198 162.831 18.1667 163.033 18.8047C163.235 19.4362 163.336 20.1393 163.336 20.9141V22.0859H154.938V20.2109H160.572V19.9961C160.572 19.6055 160.501 19.2572 160.357 18.9512C160.221 18.6387 160.012 18.3913 159.732 18.209C159.452 18.0267 159.094 17.9355 158.658 17.9355C158.287 17.9355 157.968 18.0169 157.701 18.1797C157.434 18.3424 157.216 18.5703 157.047 18.8633C156.884 19.1562 156.76 19.5013 156.676 19.8984C156.598 20.2891 156.559 20.7188 156.559 21.1875V21.5781C156.559 22.0013 156.617 22.3919 156.734 22.75C156.858 23.1081 157.031 23.4173 157.252 23.6777C157.48 23.9382 157.753 24.14 158.072 24.2832C158.398 24.4264 158.766 24.498 159.176 24.498C159.684 24.498 160.156 24.4004 160.592 24.2051C161.035 24.0033 161.415 23.7005 161.734 23.2969L163.102 24.7812C162.88 25.1003 162.577 25.4062 162.193 25.6992C161.816 25.9922 161.36 26.2331 160.826 26.4219C160.292 26.6042 159.684 26.6953 159 26.6953ZM170.65 23.5801C170.65 23.3783 170.592 23.196 170.475 23.0332C170.357 22.8704 170.139 22.7207 169.82 22.584C169.508 22.4408 169.055 22.3105 168.463 22.1934C167.929 22.0762 167.431 21.9297 166.969 21.7539C166.513 21.5716 166.116 21.3535 165.777 21.0996C165.445 20.8457 165.185 20.5462 164.996 20.2012C164.807 19.8496 164.713 19.4492 164.713 19C164.713 18.5573 164.807 18.1406 164.996 17.75C165.191 17.3594 165.468 17.0143 165.826 16.7148C166.191 16.4089 166.633 16.1712 167.154 16.002C167.682 15.8262 168.274 15.7383 168.932 15.7383C169.85 15.7383 170.637 15.8848 171.295 16.1777C171.959 16.4707 172.467 16.8743 172.818 17.3887C173.176 17.8965 173.355 18.4759 173.355 19.127H170.543C170.543 18.8535 170.484 18.6094 170.367 18.3945C170.257 18.1732 170.081 18.0007 169.84 17.877C169.605 17.7467 169.299 17.6816 168.922 17.6816C168.609 17.6816 168.339 17.737 168.111 17.8477C167.883 17.9518 167.708 18.0951 167.584 18.2773C167.467 18.4531 167.408 18.6484 167.408 18.8633C167.408 19.026 167.441 19.1725 167.506 19.3027C167.577 19.4264 167.691 19.5404 167.848 19.6445C168.004 19.7487 168.206 19.8464 168.453 19.9375C168.707 20.0221 169.02 20.1003 169.391 20.1719C170.152 20.3281 170.833 20.5332 171.432 20.7871C172.031 21.0345 172.506 21.373 172.857 21.8027C173.209 22.2259 173.385 22.7826 173.385 23.4727C173.385 23.9414 173.281 24.3711 173.072 24.7617C172.864 25.1523 172.564 25.4941 172.174 25.7871C171.783 26.0736 171.314 26.2982 170.768 26.4609C170.227 26.6172 169.618 26.6953 168.941 26.6953C167.958 26.6953 167.125 26.5195 166.441 26.168C165.764 25.8164 165.25 25.3704 164.898 24.8301C164.553 24.2832 164.381 23.7233 164.381 23.1504H167.047C167.06 23.5345 167.158 23.8438 167.34 24.0781C167.529 24.3125 167.766 24.4818 168.053 24.5859C168.346 24.6901 168.661 24.7422 169 24.7422C169.365 24.7422 169.667 24.6934 169.908 24.5957C170.149 24.4915 170.331 24.3548 170.455 24.1855C170.585 24.0098 170.65 23.8079 170.65 23.5801ZM180.924 23.5801C180.924 23.3783 180.865 23.196 180.748 23.0332C180.631 22.8704 180.413 22.7207 180.094 22.584C179.781 22.4408 179.329 22.3105 178.736 22.1934C178.202 22.0762 177.704 21.9297 177.242 21.7539C176.786 21.5716 176.389 21.3535 176.051 21.0996C175.719 20.8457 175.458 20.5462 175.27 20.2012C175.081 19.8496 174.986 19.4492 174.986 19C174.986 18.5573 175.081 18.1406 175.27 17.75C175.465 17.3594 175.742 17.0143 176.1 16.7148C176.464 16.4089 176.907 16.1712 177.428 16.002C177.955 15.8262 178.548 15.7383 179.205 15.7383C180.123 15.7383 180.911 15.8848 181.568 16.1777C182.232 16.4707 182.74 16.8743 183.092 17.3887C183.45 17.8965 183.629 18.4759 183.629 19.127H180.816C180.816 18.8535 180.758 18.6094 180.641 18.3945C180.53 18.1732 180.354 18.0007 180.113 17.877C179.879 17.7467 179.573 17.6816 179.195 17.6816C178.883 17.6816 178.613 17.737 178.385 17.8477C178.157 17.9518 177.981 18.0951 177.857 18.2773C177.74 18.4531 177.682 18.6484 177.682 18.8633C177.682 19.026 177.714 19.1725 177.779 19.3027C177.851 19.4264 177.965 19.5404 178.121 19.6445C178.277 19.7487 178.479 19.8464 178.727 19.9375C178.98 20.0221 179.293 20.1003 179.664 20.1719C180.426 20.3281 181.106 20.5332 181.705 20.7871C182.304 21.0345 182.779 21.373 183.131 21.8027C183.482 22.2259 183.658 22.7826 183.658 23.4727C183.658 23.9414 183.554 24.3711 183.346 24.7617C183.137 25.1523 182.838 25.4941 182.447 25.7871C182.057 26.0736 181.588 26.2982 181.041 26.4609C180.501 26.6172 179.892 26.6953 179.215 26.6953C178.232 26.6953 177.398 26.5195 176.715 26.168C176.038 25.8164 175.523 25.3704 175.172 24.8301C174.827 24.2832 174.654 23.7233 174.654 23.1504H177.32C177.333 23.5345 177.431 23.8438 177.613 24.0781C177.802 24.3125 178.04 24.4818 178.326 24.5859C178.619 24.6901 178.935 24.7422 179.273 24.7422C179.638 24.7422 179.941 24.6934 180.182 24.5957C180.423 24.4915 180.605 24.3548 180.729 24.1855C180.859 24.0098 180.924 23.8079 180.924 23.5801Z" fill="#1D1D1D"/>
</svg>
